<svg xmlns="http://www.w3.org/2000/svg" width="2rem" height="2rem" fill="white" viewBox="0 0 28.06 20.91"><path d="M28.06 9.81H2.2l8.89-8.9c.01-.03-.9-.91-.9-.91l-10 10c0 .01-.01.01-.02.02l-.04.04c-.01.01-.02.02-.02.03-.01.01-.02.03-.03.05-.01.01-.01.03-.02.04 0 .01-.01.02-.01.03v.02c-.01.01-.01.03-.01.04 0 .02-.01.03-.01.05 0 .01 0 .03-.01.04 0 .02 0 .03-.01.05v.1c0 .02 0 .03.01.05 0 .01 0 .03.01.04 0 .02.01.03.01.05 0 .01.01.03.01.04 0 .01 0 .01.01.02 0 .01.01.02.02.03.01.01.01.03.02.04.01.02.02.03.03.05.01.01.02.02.02.03.01.01.02.03.04.04l.02.02 10 10c0 .01.91-.91.91-.91L2.2 11.1h25.86V9.81z">
</path></svg>