<svg id="icon-sun" viewBox="0 0 32 32">
  <path d="M15.761 27.317c-6.244 0-11.321-5.077-11.321-11.321s5.077-11.321 11.321-11.321 11.321 5.077 11.321 11.321-5.077 11.321-11.321 11.321zM15.761 6.353c-5.321 0-9.643 4.33-9.643 9.643s4.33 9.643 9.643 9.643 9.643-4.33 9.643-9.643-4.322-9.643-9.643-9.643z"></path>
  <path d="M14.099 31.992v0 0c-0.579-0.059-0.999-0.571-0.94-1.15v0c0.059-0.579 0.579-0.999 1.15-0.94v0c0.579 0.059 0.999 0.579 0.94 1.15v0c-0.050 0.546-0.512 0.948-1.041 0.948v0c-0.034 0-0.076 0-0.109-0.008zM19.42 30.615c-0.176-0.546 0.117-1.141 0.671-1.318v0c0.554-0.185 1.141 0.117 1.326 0.671v0c0.176 0.554-0.126 1.141-0.671 1.318v0c-0.109 0.042-0.218 0.059-0.327 0.059v0c-0.445 0-0.856-0.285-0.999-0.73zM7.738 29.935c-0.504-0.285-0.671-0.932-0.386-1.435v0c0.294-0.504 0.932-0.671 1.435-0.386v0c0.504 0.294 0.671 0.932 0.386 1.435v0c-0.193 0.336-0.546 0.529-0.915 0.529v0c-0.176 0-0.352-0.050-0.52-0.143zM25.043 27.863c-0.386-0.428-0.352-1.091 0.076-1.477v0c0.436-0.386 1.099-0.352 1.485 0.076v0c0.386 0.428 0.352 1.091-0.076 1.485v0c-0.201 0.176-0.453 0.269-0.705 0.269v0c-0.285 0-0.571-0.117-0.78-0.352zM2.769 25.471c-0.344-0.47-0.243-1.125 0.227-1.469v0c0.47-0.336 1.125-0.235 1.469 0.235v0c0.336 0.462 0.235 1.125-0.227 1.46v0c-0.193 0.143-0.411 0.201-0.621 0.201v0c-0.327 0-0.646-0.143-0.848-0.428zM29.071 23.071c-0.529-0.235-0.764-0.856-0.529-1.385v0c0.235-0.529 0.848-0.772 1.385-0.537v0c0.529 0.243 0.764 0.856 0.529 1.385v0c-0.176 0.394-0.562 0.629-0.957 0.629v0c-0.143 0-0.294-0.034-0.428-0.092zM0.042 19.37c-0.126-0.562 0.235-1.125 0.806-1.242v0c0.562-0.117 1.116 0.235 1.242 0.806v0c0.118 0.562-0.243 1.125-0.806 1.242v0c-0.076 0.017-0.151 0.025-0.218 0.025v0c-0.487 0-0.923-0.336-1.024-0.831zM29.742 15.996v0 0c0-0.017 0-0.034 0-0.059v0c0-0.579 0.462-1.049 1.041-1.049v0c0.579 0 1.057 0.462 1.057 1.041v0c0 0.017 0 0.025 0 0.042v0c0 0.008 0 0.017 0 0.025v0 0 0c0 0.579-0.47 1.049-1.049 1.049v0c-0.579 0-1.049-0.47-1.049-1.049zM0.839 13.931c-0.571-0.117-0.932-0.671-0.814-1.242v0c0.117-0.571 0.671-0.932 1.242-0.814v0c0.562 0.117 0.932 0.68 0.806 1.242v0c-0.101 0.495-0.537 0.839-1.024 0.839v0c-0.067 0-0.143-0.008-0.21-0.025zM28.517 10.264c-0.243-0.529-0.008-1.15 0.52-1.385v0c0.529-0.243 1.15-0.008 1.393 0.52v0c0.235 0.529 0 1.15-0.529 1.393v0c-0.134 0.059-0.285 0.092-0.428 0.092v0c-0.403 0-0.789-0.235-0.957-0.621zM2.962 8.040c-0.47-0.336-0.571-0.99-0.235-1.46v0c0 0 0 0 0.008 0v0c0.336-0.47 0.99-0.579 1.46-0.235v0c0.47 0.344 0.571 0.999 0.235 1.469v0c-0.21 0.277-0.529 0.428-0.856 0.428v0c-0.21 0-0.42-0.067-0.613-0.201zM25.076 5.572c-0.428-0.386-0.462-1.049-0.076-1.477v0c0.386-0.428 1.049-0.47 1.477-0.084v0c0.428 0.386 0.47 1.049 0.084 1.485v0c-0.21 0.227-0.495 0.344-0.78 0.344v0c-0.252 0-0.504-0.084-0.705-0.269zM7.301 3.525c-0.285-0.495-0.117-1.141 0.378-1.427v0 0 0c0.504-0.294 1.15-0.126 1.435 0.378v0c0.294 0.495 0.126 1.141-0.378 1.435v0c-0.168 0.092-0.344 0.143-0.529 0.143v0c-0.361 0-0.705-0.193-0.906-0.529zM20.041 2.686c-0.554-0.176-0.856-0.772-0.68-1.318v0c0.176-0.554 0.764-0.856 1.318-0.68v0c0.554 0.176 0.856 0.764 0.68 1.318v0c-0.143 0.445-0.554 0.73-0.999 0.73v0c-0.109 0-0.21-0.017-0.319-0.050zM13.1 1.167c-0.059-0.579 0.361-1.091 0.932-1.158v0c0.579-0.059 1.091 0.361 1.158 0.932v0c0.059 0.579-0.361 1.099-0.932 1.158v0c-0.042 0-0.076 0.008-0.117 0.008v0c-0.529 0-0.982-0.403-1.041-0.94z"></path>
  </svg>
